<svg width="902" height="1006" viewBox="0 0 902 1006" fill="none" xmlns="http://www.w3.org/2000/svg">
<path fill-rule="evenodd" clip-rule="evenodd" d="M230.384 156.101C227.581 155.969 224.244 154.674 220.702 151.133C213.026 143.456 219.103 138.339 223.101 136.739C215.904 132.741 205.349 123.305 220.702 117.548C221.839 117.122 222.967 116.695 224.088 116.272C241.883 109.549 257.681 103.58 273.479 110.351C286.913 116.108 311.062 104.754 321.457 98.3564C303.066 99.9557 268.201 100.755 275.878 91.1596C285.473 79.1649 304.665 52.7766 302.266 33.5851C300.347 18.2319 296.668 11.195 295.069 9.59575C292.67 21.5904 285.953 47.4989 278.277 55.1755C270.6 62.8521 257.486 71.1684 251.888 74.367C257.486 66.3706 269.161 47.0191 271.08 33.5851C272.999 20.1511 265.482 5.59752 261.484 0C263.883 11.9947 262.444 40.7819 237.495 59.9734C224.676 69.8337 214.29 73.6147 205.502 76.8137C192.909 81.3976 183.6 84.7865 175.122 103.154C163.743 127.81 195.846 158.462 218.088 165.478C206.815 177.948 201.153 198.64 208.707 225.5C225.5 254.287 254.287 336.331 235.096 434.207C212.828 547.775 180.224 562.125 150.717 575.111L150.711 575.114C148.432 576.117 146.172 577.112 143.936 578.144C118.987 589.659 91.9592 525.367 81.5638 491.782C78.3652 515.771 76.7659 570.467 95.9574 597.335C119.947 630.92 146.335 659.707 191.915 657.309C237.495 654.91 268.681 623.723 285.473 563.75C302.266 503.777 307.064 266.282 290.271 194.314C281.234 155.584 252.049 145.339 230.384 156.101ZM868.415 393.424C868.415 625.281 680.458 813.238 448.601 813.238C216.744 813.238 28.7872 625.281 28.7872 393.424C28.7872 251.453 99.2595 125.942 207.131 49.9635C82.5214 130.216 0 270.175 0 429.408C0 678.489 201.92 880.408 451 880.408C700.08 880.408 902 678.489 902 429.408C902 248.735 795.76 92.8756 642.344 20.8929C776.687 90.9036 868.415 231.452 868.415 393.424ZM91.1596 937.984L822.835 918.793C822.835 918.793 844.425 918.793 844.425 937.984C844.425 957.176 822.835 957.176 822.835 957.176L91.1596 937.984ZM822.835 966.771L91.1596 985.963L822.835 1005.15C822.835 1005.15 844.425 1005.15 844.425 985.963C844.425 966.771 822.835 966.771 822.835 966.771ZM405.42 141.537V283.074V496.58L482.186 415.016V158.33C482.186 89.2404 403.821 43.1809 364.638 28.7873C378.232 59.9734 405.42 126.184 405.42 141.537ZM563.75 151.133V105.553L698.09 71.9681V119.947L563.75 151.133ZM563.75 160.729V206.309L698.09 175.122V127.144L563.75 160.729ZM563.75 263.883V218.303L698.09 184.718V232.697L563.75 263.883ZM563.75 275.878V321.457L698.09 290.271V242.293L563.75 275.878ZM563.75 379.032V333.452L698.09 299.867V347.846L563.75 379.032ZM563.75 391.027V436.606L698.09 405.42V357.442L563.75 391.027ZM494.181 242.293C514.172 253.488 554.154 283.554 554.154 314.261C554.154 352.644 508.574 343.048 508.574 311.862C508.574 286.913 498.979 255.087 494.181 242.293ZM597.335 470.191C544.558 460.596 482.186 539.761 513.372 635.718C519.454 654.43 523.893 670.406 527.651 683.929C543.164 739.755 547.066 753.794 606.931 746.069C628.686 743.262 642.64 737.17 652.156 729.234C654.64 728.696 657.158 727.916 659.707 726.878C711.524 705.767 729.277 618.926 731.676 578.144C730.076 581.342 724.479 589.179 714.883 594.936C702.888 602.133 681.298 597.335 714.883 578.144C717.379 576.717 719.577 575.156 721.504 573.486C723.127 572.307 724.487 570.887 725.619 569.292C739.2 552.912 732.872 529.493 726.878 518.17C724.479 522.168 717.282 533.044 707.686 544.559C698.09 556.073 671.702 549.356 659.707 544.559C670.103 542.959 695.211 536.882 712.484 525.367C729.756 513.852 735.674 490.183 736.473 479.787L729.276 484.585L707.686 479.787V460.596L690.893 472.59L688.494 441.404C675.7 454.199 639.556 477.868 597.335 470.191ZM473.571 640.325L500.445 638.36L485.43 619.472L434.645 618.188L473.571 640.325ZM485.049 667.563L472.998 643.461L434.072 621.324L461.139 664.314L485.049 667.563ZM357.442 633.319C374.234 623.723 412.617 608.53 429.41 618.925C429.41 580.542 338.252 532.564 285.474 599.734C232.697 666.904 331.054 782.054 407.819 734.074C484.585 686.095 386.229 611.729 371.835 642.915C357.442 674.101 340.649 642.915 357.442 633.319Z" fill="white"/>
</svg>
