<svg width="321" height="360" viewBox="0 0 321 360" fill="none" xmlns="http://www.w3.org/2000/svg">
<path fill-rule="evenodd" clip-rule="evenodd" d="M160.266 0C160.266 0 139.573 63.1877 133.766 99.6639L109.221 83.7227L108.433 115.493C73.93 102.857 7.45032 90.2531 7.45032 90.2531C7.45032 90.2531 52.7353 138.816 81.877 161.532L51.5369 177.563L77.6332 192.976C46.3443 213.62 0 254.529 0 254.529C0 254.529 64.3706 248.705 100.49 239.824L97.2927 268.413L132.64 251.78C135.959 285.776 160.266 360 160.266 360C160.266 360 181.132 296.286 186.838 259.883L211.311 275.777L212.087 244.503C246.586 257.14 313.082 269.747 313.082 269.747C313.082 269.747 267.399 220.756 238.273 198.17L268.995 181.937L243.299 166.76C274.581 146.033 320.533 105.471 320.533 105.471C320.533 105.471 256.093 111.301 219.985 120.19L223.24 91.0868L187.845 107.743C184.348 73.5349 160.266 0 160.266 0ZM230.116 174.701C228.657 175.461 227.278 176.124 225.989 176.679C198.895 188.349 179.094 166.391 179.094 166.391C179.094 166.391 176.743 136.917 203.837 125.247C204.636 124.903 205.49 124.561 206.395 124.223L207.237 113.839L187.596 122.658C183.341 146.171 160.266 154 160.266 154C160.266 154 132.266 144.5 132.266 115C132.266 114.745 132.268 114.486 132.272 114.222L122.39 108.224L121.831 121.338C147.492 135.611 142.314 164.603 142.314 164.603C142.314 164.603 120.476 184.537 94.6418 170.295C94.3558 170.137 94.0655 169.973 93.7709 169.803L79.3499 177.994L90.8579 185.071C92.1545 184.406 93.3858 183.82 94.5434 183.321C121.637 171.651 141.438 193.609 141.438 193.609C141.438 193.609 143.79 223.083 116.696 234.753C115.884 235.103 115.016 235.449 114.095 235.793L113.296 245.661L133.039 236.796C137.549 213.708 160.266 206 160.266 206C160.266 206 188.266 215.5 188.266 245C188.266 245.093 188.266 245.187 188.265 245.281L198.142 251.276L198.68 238.65C173.044 224.373 178.219 195.397 178.219 195.397C178.219 195.397 200.057 175.463 225.891 189.705C226.034 189.784 226.178 189.865 226.323 189.947L241.182 181.506L230.116 174.701Z" fill="#880404" fill-opacity="0.33"/>
</svg>
