<svg width="97" height="127" viewBox="0 0 97 127" fill="none" xmlns="http://www.w3.org/2000/svg">
<path d="M27.6051 116.5H18.6051L8.6051 126.5H22.6051L27.6051 116.5Z" fill="white"/>
<path d="M70.1051 116.5H79.1051L89.1051 126.5H75.1051L70.1051 116.5Z" fill="white"/>
<path fill-rule="evenodd" clip-rule="evenodd" d="M14.4843 111.041L0.247319 67.1103C-0.805841 63.8606 1.63757 60.5351 5.05354 60.5691L91.3243 61.4275C94.8333 61.4624 97.2156 65.0067 95.923 68.2691L78.8564 111.342C78.1011 113.248 76.2585 114.5 74.208 114.5H19.2407C17.0732 114.5 15.1525 113.103 14.4843 111.041ZM12 90C13.6155 92.154 15 94 17 94.5C17.9047 94.8992 19.225 95.2607 20.5633 95.6271C21.5918 95.9087 22.6309 96.1932 23.5 96.5C23.3333 94.8333 22.9 90.4 22.5 86C22 80.5 19.5 79.5 16.5 79.5H7.99998C8.99998 83 10.5 88 12 90ZM20 104.5L17.5 97.5L23.5 99L23 105.5L20 104.5ZM20 105L21.5 108.5H23V106L20 105ZM78.5 94.5C80.5 94 81.8844 92.154 83.5 90C85 88 86.5 83 87.5 79.5H79C76 79.5 73.5 80.5 73 86C72.6 90.4 72.1666 94.8333 72 96.5C72.8691 96.1932 73.9081 95.9087 74.9366 95.6271C76.2749 95.2607 77.5953 94.8992 78.5 94.5ZM78 97.5L75.5 104.5L72.5 105.5L72 99L78 97.5ZM74 108.5L75.5 105L72.5 106V108.5H74Z" fill="white"/>
<path d="M2.5 65.5C2.5 59.5 2.5 41 2.5 35C2.5 27.5 13 17 20 17C25.6 17 41 17 48 17" stroke="white" stroke-width="5"/>
<path d="M38 60.5L31.5 56.5H35L41.5 60.5H38Z" fill="white"/>
<path d="M25.5 55.5H38C41.6 55.5 44.5 57.5 44.5 57.5H38H25.5C21 57.5 11 54 11 54C11 54 21 55.5 25.5 55.5Z" fill="white"/>
<path d="M23.5 0.5L16.5 10.5H19.5L23.5 5L27.5 10.5H30.5L23.5 0.5Z" fill="white"/>
<path d="M15.5 81C15.5 81.3333 15.6 82.1 16 82.5C16.5 83 18 83 18.5 84.5L19.5 88H21.5C21.5 87.5 21.3 85.9 20.5 83.5C19.7 81.1 16.8333 80.8333 15.5 81Z" fill="white"/>
<path d="M22.5 103.5V100L21.5386 99.5193L21.5 101.5L22.5 103.5Z" fill="white"/>
<path d="M80 81C80 81.3333 79.9 82.1 79.5 82.5C79 83 77.5 83 77 84.5L76 88H74C74 87.5 74.2 85.9 75 83.5C75.8 81.1 78.6667 80.8333 80 81Z" fill="white"/>
<path d="M73 103.5V100L73.9614 99.5193L74 101.5L73 103.5Z" fill="white"/>
<path d="M93.5 65.5C93.5 59.5 93.5 41 93.5 35C93.5 27.5 83 17 76 17C70.4 17 55 17 48 17" stroke="white" stroke-width="5"/>
<path d="M58 60.5L64.5 56.5H61L54.5 60.5H58Z" fill="white"/>
<path d="M70.5 55.5H58C54.4 55.5 51.5 57.5 51.5 57.5H58H70.5C75 57.5 85 54 85 54C85 54 75 55.5 70.5 55.5Z" fill="white"/>
<path d="M72.5 0.5L79.5 10.5H76.5L72.5 5L68.5 10.5H65.5L72.5 0.5Z" fill="white"/>
</svg>
