<svg width="102" height="79" viewBox="0 0 102 79" fill="none" xmlns="http://www.w3.org/2000/svg">
<path d="M35.1976 5.3453H30.1976C29.1976 5.3453 26.2977 4.5453 22.6977 1.3453C18.1977 -2.6547 11 3.49973 11 6.84529C11 10.1908 16.1976 10.3453 17.1976 8.8453C18.1976 7.3453 18.6976 5.3453 21.1976 6.8453C23.6976 8.3453 25.6976 11.3453 28.6976 11.3453H39.6976C43.1976 11.3453 37.6976 5.3453 35.1976 5.3453Z" fill="white"/>
<path d="M1.09344 35.5C3.09344 31.9 9.26011 15.6667 12.0934 8H14.5934L13.5934 10.5L16.0934 15C13.5934 21 8.89344 33.6 10.0934 36C11.5935 39 14.5934 44.5 18.0934 44.5H31.0934L38.5934 48H47.0934V50H8.59344C0.0934391 50 -1.40656 40 1.09344 35.5Z" fill="white"/>
<path d="M56 47.5H47H42L47 52.5H58C61.1667 51.3333 68.4 49 72 49H95.5C99 49 101.5 47.5 101.5 45V36C101.5 32.5 99.5 31 95.5 31H82.5C76.5 31 64.5 36 63.5 40.5C62.7 44.1 58.1667 46.6667 56 47.5Z" fill="white"/>
<path fill-rule="evenodd" clip-rule="evenodd" d="M88 79C95.1797 79 101 73.1797 101 66C101 58.8203 95.1797 53 88 53C80.8203 53 75 58.8203 75 66C75 73.1797 80.8203 79 88 79ZM88 74C92.4183 74 96 70.4183 96 66C96 61.5817 92.4183 58 88 58C83.5817 58 80 61.5817 80 66C80 70.4183 83.5817 74 88 74Z" fill="white"/>
<rect x="87" y="56" width="2" height="20" fill="white"/>
<rect x="98" y="65" width="2" height="20" transform="rotate(90 98 65)" fill="white"/>
<rect x="94.364" y="58.2217" width="2" height="20" transform="rotate(45 94.364 58.2217)" fill="white"/>
<rect x="80.2218" y="59.6362" width="2" height="20" transform="rotate(-45 80.2218 59.6362)" fill="white"/>
<path fill-rule="evenodd" clip-rule="evenodd" d="M13 79C20.1797 79 26 73.1797 26 66C26 58.8203 20.1797 53 13 53C5.8203 53 0 58.8203 0 66C0 73.1797 5.8203 79 13 79ZM13 74C17.4183 74 21 70.4183 21 66C21 61.5817 17.4183 58 13 58C8.58172 58 5 61.5817 5 66C5 70.4183 8.58172 74 13 74Z" fill="white"/>
<rect x="12" y="56" width="2" height="20" fill="white"/>
<rect x="23" y="65" width="2" height="20" transform="rotate(90 23 65)" fill="white"/>
<rect x="19.364" y="58.2217" width="2" height="20" transform="rotate(45 19.364 58.2217)" fill="white"/>
<rect x="5.2218" y="59.6362" width="2" height="20" transform="rotate(-45 5.2218 59.6362)" fill="white"/>
<path d="M2.5 15L7 19L8 21.5H6L2.5 22.5H0V15H2.5Z" fill="white"/>
<path d="M41 31.5L29.5 44.5H52.5L63.5 31.5H41Z" fill="white"/>
<path d="M42 51.5H38.5L34.5 60.5L34 68.5L37.5 72L40 71H48V68.5H42L38 70L35.5 68.5L38 61L42 59L44 53.5L42 51.5Z" fill="white"/>
<path d="M31.5 34L38.5 27.5H66" stroke="#FFF6F6" stroke-width="4"/>
</svg>
