<svg width="169" height="112" viewBox="0 0 169 112" fill="none" xmlns="http://www.w3.org/2000/svg">
<path fill-rule="evenodd" clip-rule="evenodd" d="M84.5 41.5552H36.923C40.7304 32.552 47.9592 15.4072 49.5 11.5552C49.7229 10.998 49.9147 10.4905 50.0893 10.0285C51.4817 6.34476 51.7801 5.55536 58 5.55536H84H85.5H111.5C117.72 5.55536 118.018 6.34476 119.411 10.0285C119.585 10.4905 119.777 10.998 120 11.5552C121.541 15.4072 128.77 32.552 132.577 41.5552H85H84.5ZM84.75 66.6706L78.5 69.5552L81.5 71.0552L83 74.5552H84.5H85H86.5L88 71.0552L91 69.5552L84.75 66.6706ZM84.5 97.5552H68.5L65 94.5552L61.5 86.5552H47L44.5 87.5552H41.5L38.5 91.5552H35.5L33.5 85.5552L30.5 80.0552L24.5 77.5552L16 73.0552L11 71.0552L6.99999 65.0552L12.5 61.0552L16 58.5552L21 50.5552L19.7137 49.5261C17.9481 52.0435 15.3627 55.0552 13.5 55.0552C11.1 55.0552 8.5 53.0552 7.5 52.0552C6.5 51.2218 3.99999 49.1552 1.99999 47.5552C-0.500012 45.5552 0.499988 42.5552 2.49999 42.5552H16L20.5 45.0552L20.619 45.6504L22.9167 47.4885L23.5 46.5552L28.3973 41.6579C33.0419 31.1677 42.1685 10.607 44.5 5.55536C47.1483 -0.182559 51.7447 -0.0760282 56.2256 0.0278244C56.8207 0.0416175 57.4138 0.0553634 58 0.0553634H84H85.5H111.5C112.086 0.0553634 112.679 0.0416175 113.274 0.0278244C117.755 -0.0760282 122.352 -0.182559 125 5.55536C127.332 10.607 136.458 31.1677 141.103 41.6579L146 46.5552L146.583 47.4885L148.881 45.6504L149 45.0552L153.5 42.5552H167C169 42.5552 170 45.5552 167.5 47.5552C165.5 49.1552 163 51.2218 162 52.0552C161 53.0552 158.4 55.0552 156 55.0552C154.137 55.0552 151.552 52.0435 149.786 49.5261L148.5 50.5552L153.5 58.5552L157 61.0552L162.5 65.0552L158.5 71.0552L153.5 73.0552L145 77.5552L139 80.0552L136 85.5552L134 91.5552H131L128 87.5552H125L122.5 86.5552H108L104.5 94.5552L101 97.5552H85H84.5ZM45 90.0552C42.7908 90.0552 41 91.846 41 94.0552V107.055C41 109.264 42.7908 111.055 45 111.055H57C59.2091 111.055 61 109.264 61 107.055V94.0552C61 91.846 59.2091 90.0552 57 90.0552H45ZM34.5 72.5551C29.7 72.5551 24.5 68.8884 22.5 67.0551C31 66.0551 48.7 65.0551 51.5 69.0551C55 74.0551 49.5 75.0552 48 74.5552C46.8 74.1552 38.5 73.0551 34.5 72.5551ZM128.5 94.0552C128.5 91.846 126.709 90.0552 124.5 90.0552H112.5C110.291 90.0552 108.5 91.846 108.5 94.0552V107.055C108.5 109.264 110.291 111.055 112.5 111.055H124.5C126.709 111.055 128.5 109.264 128.5 107.055V94.0552ZM147 67.0551C145 68.8884 139.8 72.5551 135 72.5551C131 73.0551 122.7 74.1552 121.5 74.5552C120 75.0552 114.5 74.0551 118 69.0551C120.8 65.0551 138.5 66.0551 147 67.0551Z" fill="white"/>
</svg>
